<mxfile host="app.diagrams.net" modified="2023-11-04T21:49:47.472Z" agent="Mozilla/5.0 (Windows NT 10.0; Win64; x64) AppleWebKit/537.36 (KHTML, like Gecko) Chrome/119.0.0.0 Safari/537.36 Edg/119.0.0.0" version="22.0.8" etag="DmXMtpP6FGjkiwV_utvv" type="github">
  <diagram name="Page-1" id="5-CJqHsONE64m7rxRIfG">
    <mxGraphModel>
      <root>
        <mxCell id="0" />
        <mxCell id="1" parent="0" />
      </root>
    </mxGraphModel>
  </diagram>
</mxfile>
